<svg xmlns="http://www.w3.org/2000/svg" xmlns:xlink="http://www.w3.org/1999/xlink" width="500" zoomAndPan="magnify" viewBox="0 0 375 374.999991" height="500" preserveAspectRatio="xMidYMid meet" version="1.0"><defs><g/><clipPath id="e6674fd60f"><path d="M 37.5 37.5 L 337.5 37.5 L 337.5 337.5 L 37.5 337.5 Z M 37.5 37.5 " clip-rule="nonzero"/></clipPath><clipPath id="fb9617a1d0"><path d="M 309.347656 183.804688 L 316.847656 183.804688 L 316.847656 191.304688 L 309.347656 191.304688 Z M 309.347656 183.804688 " clip-rule="nonzero"/></clipPath><clipPath id="a2d3701b0b"><path d="M 58.191406 183.804688 L 65.691406 183.804688 L 65.691406 191.304688 L 58.191406 191.304688 Z M 58.191406 183.804688 " clip-rule="nonzero"/></clipPath><clipPath id="c0aa378527"><path d="M 95.625 147.246094 L 279.441406 147.246094 L 279.441406 227.496094 L 95.625 227.496094 Z M 95.625 147.246094 " clip-rule="nonzero"/></clipPath><clipPath id="cf0e6b7a70"><path d="M 309.347656 183.804688 L 316.847656 183.804688 L 316.847656 191.304688 L 309.347656 191.304688 Z M 309.347656 183.804688 " clip-rule="nonzero"/></clipPath><clipPath id="eea836b5bf"><path d="M 58.191406 183.804688 L 65.691406 183.804688 L 65.691406 191.304688 L 58.191406 191.304688 Z M 58.191406 183.804688 " clip-rule="nonzero"/></clipPath></defs><g clip-path="url(#e6674fd60f)"><path fill="#ffffff" d="M 187.5 337.5 C 104.628906 337.5 37.5 269.90625 37.5 187.5 C 37.5 105.09375 104.628906 37.5 187.5 37.5 C 270.371094 37.5 337.5 104.628906 337.5 187.5 C 337.5 270.371094 269.90625 337.5 187.5 337.5 Z M 187.5 46.757812 C 109.722656 46.757812 46.757812 109.722656 46.757812 187.5 C 46.757812 265.277344 109.722656 328.242188 187.5 328.242188 C 265.277344 328.242188 328.242188 265.277344 328.242188 187.5 C 328.242188 109.722656 264.816406 46.757812 187.5 46.757812 Z M 187.5 46.757812 " fill-opacity="1" fill-rule="nonzero"/></g><g fill="#ffffff" fill-opacity="1"><g transform="translate(80.233632, 251.358427)"><g><path d="M 20.609375 -3.453125 C 21.171875 -2.585938 21.585938 -1.664062 21.859375 -0.6875 C 22.140625 0.289062 22.289062 1.046875 22.3125 1.578125 L 22.296875 2.421875 L 18.46875 2.828125 C 18.476562 2.660156 18.476562 2.4375 18.46875 2.15625 C 18.457031 1.875 18.367188 1.382812 18.203125 0.6875 C 18.046875 0 17.8125 -0.585938 17.5 -1.078125 C 17.101562 -1.679688 16.671875 -2.0625 16.203125 -2.21875 C 15.742188 -2.382812 15.296875 -2.328125 14.859375 -2.046875 C 14.640625 -1.898438 14.488281 -1.6875 14.40625 -1.40625 C 14.320312 -1.132812 14.296875 -0.75 14.328125 -0.25 C 14.359375 0.25 14.398438 0.679688 14.453125 1.046875 C 14.503906 1.421875 14.585938 1.984375 14.703125 2.734375 C 14.941406 4.035156 14.921875 5.289062 14.640625 6.5 C 14.367188 7.707031 13.757812 8.613281 12.8125 9.21875 C 11.90625 9.8125 11.003906 10.160156 10.109375 10.265625 C 9.222656 10.378906 8.398438 10.273438 7.640625 9.953125 C 6.890625 9.640625 6.203125 9.195312 5.578125 8.625 C 4.953125 8.0625 4.378906 7.378906 3.859375 6.578125 C 3.410156 5.878906 3.035156 5.15625 2.734375 4.40625 C 2.441406 3.65625 2.253906 2.984375 2.171875 2.390625 C 2.097656 1.796875 2.046875 1.253906 2.015625 0.765625 C 1.992188 0.285156 2.003906 -0.0820312 2.046875 -0.34375 L 2.078125 -0.71875 L 6.28125 -0.890625 C 6.25 -0.660156 6.21875 -0.347656 6.1875 0.046875 C 6.164062 0.453125 6.210938 1.101562 6.328125 2 C 6.441406 2.90625 6.664062 3.617188 7 4.140625 C 7.988281 5.660156 9.003906 6.082031 10.046875 5.40625 C 10.253906 5.269531 10.414062 5.085938 10.53125 4.859375 C 10.65625 4.628906 10.71875 4.316406 10.71875 3.921875 C 10.71875 3.523438 10.703125 3.1875 10.671875 2.90625 C 10.648438 2.625 10.59375 2.171875 10.5 1.546875 C 10.414062 0.921875 10.359375 0.457031 10.328125 0.15625 C 10.179688 -1.101562 10.296875 -2.222656 10.671875 -3.203125 C 11.046875 -4.191406 11.640625 -4.945312 12.453125 -5.46875 C 13.867188 -6.382812 15.363281 -6.613281 16.9375 -6.15625 C 18.519531 -5.695312 19.742188 -4.796875 20.609375 -3.453125 Z M 20.609375 -3.453125 "/></g></g></g><g fill="#ffffff" fill-opacity="1"><g transform="translate(92.703605, 269.648843)"><g><path d="M 21.171875 -5.09375 L 12.796875 13.40625 L 9.609375 10.078125 L 11.375 6.46875 L 6.421875 1.28125 L 2.734375 2.875 L -0.4375 -0.46875 L 18.4375 -7.953125 Z M 13.09375 2.8125 L 15.609375 -2.5 L 15.578125 -2.53125 L 10.171875 -0.265625 Z M 13.09375 2.8125 "/></g></g></g><g fill="#ffffff" fill-opacity="1"><g transform="translate(110.273764, 287.124678)"><g><path d="M 11.3125 -6.359375 L 4.640625 3.234375 L 1.125 0.78125 L 11.875 -14.6875 L 15.390625 -12.234375 L 14.875 1.640625 L 14.90625 1.671875 L 21.578125 -7.9375 L 25.109375 -5.5 L 14.359375 9.96875 L 10.828125 7.53125 L 11.359375 -6.34375 Z M 11.3125 -6.359375 "/></g></g></g><g fill="#ffffff" fill-opacity="1"><g transform="translate(131.812664, 301.148124)"><g><path d="M 8.765625 -16.71875 L 13.765625 -14.546875 C 16.160156 -13.503906 17.851562 -11.789062 18.84375 -9.40625 C 19.84375 -7.03125 19.800781 -4.601562 18.71875 -2.125 C 17.644531 0.351562 15.90625 2.039062 13.5 2.9375 C 11.09375 3.84375 8.679688 3.769531 6.265625 2.71875 L 1.265625 0.546875 Z M 6.71875 -1.265625 L 7.328125 -1 C 8.765625 -0.375 10.148438 -0.347656 11.484375 -0.921875 C 12.828125 -1.492188 13.820312 -2.507812 14.46875 -3.96875 C 15.101562 -5.425781 15.175781 -6.84375 14.6875 -8.21875 C 14.207031 -9.59375 13.238281 -10.597656 11.78125 -11.234375 L 11.171875 -11.5 Z M 6.71875 -1.265625 "/></g></g></g><g fill="#ffffff" fill-opacity="1"><g transform="translate(153.877744, 310.405372)"><g><path d="M 15.546875 2.90625 L 14.53125 -8.03125 L 9.625 1.796875 L 4.9375 0.921875 L 3.109375 -18.578125 L 7.796875 -17.703125 L 8.59375 -4.40625 L 8.71875 -4.390625 L 14.453125 -16.46875 L 17.625 -15.875 L 18.640625 -2.53125 L 18.734375 -2.515625 L 24.28125 -14.625 L 28.953125 -13.75 L 20.21875 3.78125 Z M 15.546875 2.90625 "/></g></g></g><g fill="#ffffff" fill-opacity="1"><g transform="translate(185.874513, 314.880388)"><g><path d="M 5.65625 -18.828125 L 5.65625 0 L 1.375 0 L 1.375 -18.828125 Z M 5.65625 -18.828125 "/></g></g></g><g fill="#ffffff" fill-opacity="1"><g transform="translate(199.482549, 314.773282)"><g><path d="M 10.6875 -5.515625 C 11.332031 -5.609375 11.945312 -5.800781 12.53125 -6.09375 C 13.113281 -6.382812 13.535156 -6.644531 13.796875 -6.875 L 14.171875 -7.21875 L 16.53125 -3.875 C 16.46875 -3.832031 16.390625 -3.757812 16.296875 -3.65625 C 16.203125 -3.5625 15.976562 -3.390625 15.625 -3.140625 C 15.269531 -2.890625 14.882812 -2.648438 14.46875 -2.421875 C 14.0625 -2.203125 13.515625 -1.976562 12.828125 -1.75 C 12.140625 -1.53125 11.414062 -1.363281 10.65625 -1.25 C 8.925781 -0.988281 7.222656 -1.164062 5.546875 -1.78125 C 3.878906 -2.394531 2.457031 -3.375 1.28125 -4.71875 C 0.113281 -6.070312 -0.597656 -7.613281 -0.859375 -9.34375 C -1.054688 -10.664062 -0.96875 -11.96875 -0.59375 -13.25 C -0.21875 -14.53125 0.363281 -15.671875 1.15625 -16.671875 C 1.945312 -17.679688 2.921875 -18.53125 4.078125 -19.21875 C 5.242188 -19.90625 6.472656 -20.347656 7.765625 -20.546875 C 8.972656 -20.722656 10.101562 -20.742188 11.15625 -20.609375 C 12.21875 -20.484375 12.976562 -20.304688 13.4375 -20.078125 L 14.15625 -19.75 L 12.875 -15.859375 C 12.75 -15.941406 12.570312 -16.03125 12.34375 -16.125 C 12.125 -16.226562 11.679688 -16.332031 11.015625 -16.4375 C 10.347656 -16.550781 9.691406 -16.5625 9.046875 -16.46875 C 8.023438 -16.3125 7.132812 -16.007812 6.375 -15.5625 C 5.613281 -15.113281 5.035156 -14.578125 4.640625 -13.953125 C 4.242188 -13.335938 3.96875 -12.703125 3.8125 -12.046875 C 3.65625 -11.390625 3.628906 -10.734375 3.734375 -10.078125 C 3.941406 -8.671875 4.660156 -7.484375 5.890625 -6.515625 C 7.117188 -5.554688 8.71875 -5.222656 10.6875 -5.515625 Z M 10.6875 -5.515625 "/></g></g></g><g fill="#ffffff" fill-opacity="1"><g transform="translate(223.126034, 310.576123)"><g><path d="M 2.796875 -9.015625 L 5.328125 -1.890625 L 1.296875 -0.453125 L -5 -18.1875 L -0.96875 -19.625 L 1.53125 -12.5625 L 7.265625 -14.59375 L 4.765625 -21.65625 L 8.8125 -23.09375 L 15.109375 -5.359375 L 11.0625 -3.921875 L 8.53125 -11.046875 Z M 2.796875 -9.015625 "/></g></g></g><g fill="#ffffff" fill-opacity="1"><g transform="translate(245.568263, 301.783748)"><g><path d="M 1.234375 -22.359375 L 3.09375 -19.09375 L -2.53125 -15.890625 L -0.671875 -12.640625 L 4.734375 -15.71875 L 6.59375 -12.453125 L 1.1875 -9.375 L 3.0625 -6.0625 L 8.6875 -9.265625 L 10.546875 -6 L 1.1875 -0.6875 L -8.125 -17.046875 Z M 1.234375 -22.359375 "/></g></g></g><g fill="#ffffff" fill-opacity="1"><g transform="translate(262.678341, 291.542095)"><g><path d="M -10.90625 -15.40625 L -5.703125 -19.6875 C -4.304688 -20.832031 -2.859375 -21.394531 -1.359375 -21.375 C 0.128906 -21.363281 1.445312 -20.664062 2.59375 -19.28125 C 3.46875 -18.207031 3.929688 -17.085938 3.984375 -15.921875 C 4.046875 -14.765625 3.738281 -13.660156 3.0625 -12.609375 L 13.03125 -10.71875 L 8.8125 -7.25 L -0.375 -9.328125 L 4.359375 -3.59375 L 1.0625 -0.875 Z M -2.296875 -11.6875 L -1.90625 -12 C -1.59375 -12.257812 -1.335938 -12.476562 -1.140625 -12.65625 C -0.941406 -12.84375 -0.734375 -13.082031 -0.515625 -13.375 C -0.304688 -13.664062 -0.171875 -13.941406 -0.109375 -14.203125 C -0.0546875 -14.472656 -0.0703125 -14.78125 -0.15625 -15.125 C -0.25 -15.46875 -0.4375 -15.8125 -0.71875 -16.15625 C -1.007812 -16.507812 -1.316406 -16.765625 -1.640625 -16.921875 C -1.960938 -17.078125 -2.257812 -17.148438 -2.53125 -17.140625 C -2.800781 -17.140625 -3.097656 -17.0625 -3.421875 -16.90625 C -3.753906 -16.75 -4.03125 -16.585938 -4.25 -16.421875 C -4.46875 -16.265625 -4.734375 -16.054688 -5.046875 -15.796875 L -5.4375 -15.484375 Z M -2.296875 -11.6875 "/></g></g></g><g fill="#ffffff" fill-opacity="1"><g transform="translate(279.800102, 276.391167)"><g><path d="M -10.15625 -16.828125 L 3.796875 -4.1875 L 0.921875 -1.015625 L -13.03125 -13.65625 Z M -10.15625 -16.828125 "/></g></g></g><g fill="#ffffff" fill-opacity="1"><g transform="translate(288.699685, 266.244338)"><g><path d="M -8.609375 -20.6875 L -5.5 -18.546875 L -9.171875 -13.203125 L -6.109375 -11.09375 L -2.578125 -16.21875 L 0.53125 -14.078125 L -3 -8.953125 L 0.125 -6.796875 L 3.796875 -12.140625 L 6.890625 -10 L 0.78125 -1.125 L -14.71875 -11.8125 Z M -8.609375 -20.6875 "/></g></g></g><g clip-path="url(#fb9617a1d0)"><path fill="#282325" d="M 309.347656 187.53125 C 309.347656 186.5 309.820312 185.574219 310.5 184.898438 C 311.175781 184.222656 312.101562 183.804688 313.132812 183.804688 C 314.164062 183.804688 315.089844 184.222656 315.765625 184.898438 C 316.441406 185.574219 316.847656 186.5 316.847656 187.53125 C 316.847656 188.5625 316.484375 189.53125 315.808594 190.207031 C 315.132812 190.886719 314.164062 191.300781 313.128906 191.300781 C 312.097656 191.300781 311.210938 190.800781 310.535156 190.125 C 309.859375 189.449219 309.347656 188.5625 309.347656 187.53125 Z M 309.347656 187.53125 " fill-opacity="1" fill-rule="nonzero"/></g><g clip-path="url(#a2d3701b0b)"><path fill="#282325" d="M 58.191406 187.53125 C 58.191406 186.5 58.664062 185.574219 59.339844 184.898438 C 60.019531 184.222656 60.945312 183.804688 61.976562 183.804688 C 63.007812 183.804688 63.929688 184.222656 64.609375 184.898438 C 65.285156 185.574219 65.691406 186.5 65.691406 187.53125 C 65.691406 188.5625 65.328125 189.53125 64.652344 190.207031 C 63.972656 190.886719 63.007812 191.300781 61.972656 191.300781 C 60.941406 191.300781 60.054688 190.800781 59.378906 190.125 C 58.703125 189.449219 58.191406 188.5625 58.191406 187.53125 Z M 58.191406 187.53125 " fill-opacity="1" fill-rule="nonzero"/></g><g clip-path="url(#c0aa378527)"><path fill="#ffffff" d="M 221.824219 196.660156 C 213.664062 192.289062 205.503906 187.917969 197.34375 183.546875 L 246.304688 183.546875 C 239.90625 186.972656 233.507812 190.402344 227.113281 193.828125 C 226.667969 193.921875 226.304688 194.125 226.027344 194.410156 C 224.628906 195.160156 223.230469 195.910156 221.824219 196.660156 Z M 197 190 C 192.382812 190.46875 188.230469 191.910156 183.78125 193.070312 C 178.617188 194.410156 173.222656 194.671875 167.917969 194.105469 C 169.742188 193.125 171.578125 192.144531 173.402344 191.164062 C 177.929688 188.738281 182.453125 186.320312 186.972656 183.894531 C 190.707031 185.898438 194.445312 187.898438 198.183594 189.902344 C 197.785156 189.929688 197.390625 189.960938 197 190 Z M 152.117188 196.660156 C 148.25 194.589844 144.382812 192.519531 140.515625 190.445312 C 140.230469 190.125 139.828125 189.898438 139.332031 189.8125 C 135.433594 187.722656 131.535156 185.636719 127.636719 183.546875 L 176.597656 183.546875 C 168.4375 187.917969 160.277344 192.289062 152.117188 196.660156 Z M 122.808594 153.457031 C 136.230469 149.75 150.039062 156.488281 156.179688 168.757812 C 157.679688 171.753906 162.175781 169.121094 160.679688 166.128906 C 158.949219 162.675781 156.671875 159.617188 154.003906 157.015625 C 168.34375 147.8125 187.589844 153.40625 195.277344 168.757812 C 196.777344 171.753906 201.273438 169.121094 199.777344 166.128906 C 198.007812 162.605469 195.738281 159.5625 193.113281 157.007812 C 207.457031 147.820312 226.695312 153.410156 234.382812 168.757812 C 235.875 171.753906 240.375 169.121094 238.875 166.128906 C 236.859375 162.097656 234.171875 158.691406 231.050781 155.929688 C 239.921875 151.285156 250.585938 151.242188 259.363281 156.542969 C 267.175781 161.261719 272.054688 169.402344 272.957031 178.339844 L 102.03125 178.339844 C 103.234375 166.699219 111.292969 156.632812 122.808594 153.457031 Z M 277.597656 192.15625 C 271.578125 190.550781 265.066406 189.9375 258.859375 190.160156 C 253.773438 190.34375 249.113281 191.550781 244.214844 192.78125 C 242.246094 193.277344 240.242188 193.59375 238.226562 193.785156 C 239.859375 192.910156 241.492188 192.035156 243.121094 191.164062 C 247.855469 188.621094 252.597656 186.085938 257.335938 183.546875 L 275.730469 183.546875 C 277.121094 183.546875 278.359375 182.355469 278.332031 180.945312 C 278.167969 169.160156 272.128906 158.179688 261.992188 152.046875 C 251.074219 145.4375 237.191406 145.832031 226.484375 152.542969 C 215.320312 145.671875 200.566406 145.644531 188.980469 153.59375 C 177.667969 145.695312 162.042969 145.257812 149.894531 153.585938 C 141.828125 147.867188 131.429688 145.679688 121.425781 148.429688 C 106.824219 152.445312 96.882812 165.9375 96.671875 180.945312 C 96.648438 182.351562 97.878906 183.546875 99.273438 183.546875 L 116.617188 183.546875 C 121.359375 186.085938 126.101562 188.628906 130.839844 191.167969 C 124.738281 192.644531 118.808594 194.636719 112.316406 194.472656 C 107.785156 194.359375 103.082031 193.699219 98.789062 192.160156 C 95.632812 191.019531 94.269531 196.050781 97.40625 197.179688 C 101.792969 198.757812 106.652344 199.429688 111.28125 199.644531 C 115.460938 199.835938 119.691406 199.5 123.777344 198.589844 C 128.65625 197.496094 133.097656 195.613281 138.09375 195.054688 C 141.113281 196.667969 144.128906 198.285156 147.144531 199.898438 C 148.335938 200.539062 149.546875 201.363281 150.804688 201.859375 C 152.671875 202.601562 154.019531 201.550781 155.609375 200.699219 C 157.222656 199.832031 158.832031 198.972656 160.441406 198.109375 C 167.367188 199.6875 174.558594 200.03125 181.574219 198.855469 C 186.546875 198.023438 191.164062 195.941406 196.183594 195.308594 C 200.253906 194.792969 204.371094 194.910156 208.441406 195.394531 C 211.242188 196.894531 214.046875 198.394531 216.855469 199.898438 C 218.042969 200.539062 219.253906 201.363281 220.515625 201.859375 C 222.382812 202.601562 223.726562 201.550781 225.320312 200.699219 C 226.367188 200.140625 227.40625 199.578125 228.449219 199.019531 C 233.070312 199.339844 237.6875 199.238281 242.269531 198.484375 C 247.539062 197.621094 252.414062 195.714844 257.804688 195.414062 C 263.917969 195.078125 270.28125 195.597656 276.210938 197.179688 C 279.457031 198.046875 280.839844 193.023438 277.597656 192.15625 Z M 258.460938 222.511719 C 255.800781 222.53125 253.144531 222.511719 250.488281 222.511719 L 127.886719 222.511719 C 124.285156 222.511719 120.691406 222.523438 117.09375 222.511719 C 109.753906 222.476562 103.558594 218.042969 102.167969 211 L 272.824219 211 C 271.464844 217.761719 265.601562 222.453125 258.460938 222.511719 Z M 275.730469 205.789062 L 99.273438 205.789062 C 98.601562 205.789062 98.070312 206.003906 97.667969 206.34375 C 97.0625 206.753906 96.644531 207.429688 96.671875 208.394531 C 96.953125 219.082031 105.324219 227.476562 116.027344 227.71875 C 118.132812 227.761719 120.246094 227.71875 122.355469 227.71875 L 249.476562 227.71875 C 252.585938 227.71875 255.691406 227.777344 258.792969 227.71875 C 269.566406 227.503906 278.054688 219.207031 278.332031 208.394531 C 278.371094 206.984375 277.109375 205.789062 275.730469 205.789062 " fill-opacity="1" fill-rule="nonzero"/></g><g fill="#ffffff" fill-opacity="1"><g transform="translate(79.812945, 153.311498)"><g><path d="M -15.25 -12.40625 L -1.328125 -6.671875 L 1.140625 -12.671875 L 4.625 -11.234375 L 0.515625 -1.265625 L -16.890625 -8.4375 Z M -15.25 -12.40625 "/></g></g></g><g fill="#ffffff" fill-opacity="1"><g transform="translate(85.22941, 140.31452)"><g><path d="M -10.390625 -19.84375 L -7.125 -17.984375 L -10.3125 -12.34375 L -7.0625 -10.515625 L -4 -15.921875 L -0.71875 -14.0625 L -3.78125 -8.65625 L -0.484375 -6.78125 L 2.703125 -12.421875 L 5.984375 -10.5625 L 0.671875 -1.203125 L -15.703125 -10.484375 Z M -10.390625 -19.84375 "/></g></g></g><g fill="#ffffff" fill-opacity="1"><g transform="translate(92.619302, 127.759424)"><g/></g></g><g fill="#ffffff" fill-opacity="1"><g transform="translate(96.770763, 121.497764)"><g><path d="M -13.203125 -13.5 L -8.734375 -18.546875 C -7.535156 -19.898438 -6.195312 -20.679688 -4.71875 -20.890625 C -3.238281 -21.109375 -1.828125 -20.625 -0.484375 -19.4375 C 0.554688 -18.519531 1.195312 -17.492188 1.4375 -16.359375 C 1.675781 -15.222656 1.546875 -14.082031 1.046875 -12.9375 L 11.171875 -12.640625 L 7.546875 -8.546875 L -1.828125 -9.15625 L 3.75 -4.234375 L 0.90625 -1.03125 Z M -4.109375 -11.171875 L -3.78125 -11.546875 C -3.519531 -11.847656 -3.300781 -12.101562 -3.125 -12.3125 C -2.957031 -12.53125 -2.789062 -12.800781 -2.625 -13.125 C -2.457031 -13.457031 -2.363281 -13.753906 -2.34375 -14.015625 C -2.332031 -14.285156 -2.394531 -14.582031 -2.53125 -14.90625 C -2.675781 -15.238281 -2.914062 -15.550781 -3.25 -15.84375 C -3.59375 -16.144531 -3.9375 -16.34375 -4.28125 -16.4375 C -4.625 -16.539062 -4.925781 -16.570312 -5.1875 -16.53125 C -5.457031 -16.488281 -5.742188 -16.363281 -6.046875 -16.15625 C -6.347656 -15.945312 -6.59375 -15.742188 -6.78125 -15.546875 C -6.976562 -15.359375 -7.207031 -15.113281 -7.46875 -14.8125 L -7.796875 -14.4375 Z M -4.109375 -11.171875 "/></g></g></g><g fill="#ffffff" fill-opacity="1"><g transform="translate(108.274941, 108.509321)"><g><path d="M -3.5 -21.484375 L 14.3125 -11.765625 L 10.75 -8.84375 L 7.296875 -10.859375 L 1.75 -6.3125 L 3.0625 -2.515625 L -0.5 0.40625 L -6.5625 -18.96875 Z M 3.78125 -12.84375 L -1.328125 -15.75 L -1.375 -15.71875 L 0.5 -10.140625 Z M 3.78125 -12.84375 "/></g></g></g><g fill="#ffffff" fill-opacity="1"><g transform="translate(122.902725, 96.594604)"><g><path d="M 6.296875 -3.625 L -9.953125 -16.015625 L -5.75 -18.421875 L 4.546875 -10.0625 L 2.484375 -23.15625 L 6.671875 -25.5625 L 9.21875 -5.3125 Z M 6.296875 -3.625 "/></g></g></g><g fill="#ffffff" fill-opacity="1"><g transform="translate(139.456312, 87.357921)"><g><path d="M 4.390625 -21.96875 L 5.765625 -18.46875 L -0.265625 -16.09375 L 1.109375 -12.609375 L 6.890625 -14.890625 L 8.265625 -11.390625 L 2.484375 -9.109375 L 3.890625 -5.578125 L 9.921875 -7.953125 L 11.296875 -4.453125 L 1.28125 -0.5 L -5.625 -18.015625 Z M 4.390625 -21.96875 "/></g></g></g><g fill="#ffffff" fill-opacity="1"><g transform="translate(152.902629, 82.146741)"><g><path d="M 0.828125 -19.640625 L 4.546875 -5.046875 L 10.828125 -6.640625 L 11.765625 -3 L 1.328125 -0.34375 L -3.328125 -18.578125 Z M 0.828125 -19.640625 "/></g></g></g><g fill="#ffffff" fill-opacity="1"><g transform="translate(166.747684, 78.838724)"><g/></g></g><g fill="#ffffff" fill-opacity="1"><g transform="translate(174.070082, 77.385547)"><g><path d="M 18.046875 -11.15625 L 18.171875 -7.0625 C 17.753906 -4.8125 16.742188 -3.082031 15.140625 -1.875 C 13.546875 -0.675781 11.738281 -0.0390625 9.71875 0.03125 C 7.175781 0.113281 4.976562 -0.765625 3.125 -2.609375 C 1.28125 -4.453125 0.3125 -6.722656 0.21875 -9.421875 C 0.125 -12.160156 0.921875 -14.5 2.609375 -16.4375 C 4.304688 -18.375 6.460938 -19.382812 9.078125 -19.46875 C 12.128906 -19.570312 14.578125 -18.582031 16.421875 -16.5 L 13.734375 -13.34375 C 12.671875 -14.914062 11.242188 -15.671875 9.453125 -15.609375 C 8.128906 -15.566406 7.015625 -14.957031 6.109375 -13.78125 C 5.210938 -12.601562 4.789062 -11.203125 4.84375 -9.578125 C 4.894531 -7.984375 5.40625 -6.632812 6.375 -5.53125 C 7.351562 -4.425781 8.503906 -3.894531 9.828125 -3.9375 C 10.921875 -3.96875 11.863281 -4.328125 12.65625 -5.015625 C 13.457031 -5.710938 13.84375 -6.609375 13.8125 -7.703125 L 9.46875 -7.546875 L 9.359375 -10.859375 Z M 18.046875 -11.15625 "/></g></g></g><g fill="#ffffff" fill-opacity="1"><g transform="translate(193.891931, 76.763138)"><g><path d="M 1.90625 -9.25 C 2.300781 -11.945312 3.550781 -14.09375 5.65625 -15.6875 C 7.769531 -17.28125 10.117188 -17.890625 12.703125 -17.515625 C 15.304688 -17.128906 17.382812 -15.867188 18.9375 -13.734375 C 20.488281 -11.609375 21.066406 -9.191406 20.671875 -6.484375 C 20.265625 -3.753906 19.023438 -1.59375 16.953125 0 C 14.890625 1.59375 12.523438 2.191406 9.859375 1.796875 C 7.140625 1.398438 5.03125 0.148438 3.53125 -1.953125 C 2.039062 -4.054688 1.5 -6.488281 1.90625 -9.25 Z M 6.46875 -8.578125 C 6.320312 -7.597656 6.34375 -6.679688 6.53125 -5.828125 C 6.71875 -4.972656 7.144531 -4.210938 7.8125 -3.546875 C 8.488281 -2.878906 9.375 -2.46875 10.46875 -2.3125 C 12.0625 -2.070312 13.335938 -2.4375 14.296875 -3.40625 C 15.253906 -4.375 15.847656 -5.628906 16.078125 -7.171875 C 16.296875 -8.691406 16.078125 -10.054688 15.421875 -11.265625 C 14.765625 -12.484375 13.65625 -13.207031 12.09375 -13.4375 C 10.5625 -13.65625 9.296875 -13.28125 8.296875 -12.3125 C 7.296875 -11.34375 6.6875 -10.097656 6.46875 -8.578125 Z M 6.46875 -8.578125 "/></g></g></g><g fill="#ffffff" fill-opacity="1"><g transform="translate(214.590895, 80.018747)"><g><path d="M 20.921875 -12.953125 L 17.125 -1.421875 C 16.40625 0.773438 15.265625 2.242188 13.703125 2.984375 C 12.148438 3.722656 10.234375 3.71875 7.953125 2.96875 C 5.671875 2.226562 4.117188 1.097656 3.296875 -0.421875 C 2.484375 -1.941406 2.4375 -3.800781 3.15625 -6 L 6.953125 -17.53125 L 11.046875 -16.203125 L 7.640625 -5.859375 C 7.171875 -4.410156 7.066406 -3.328125 7.328125 -2.609375 C 7.597656 -1.898438 8.242188 -1.375 9.265625 -1.03125 C 10.296875 -0.695312 11.128906 -0.738281 11.765625 -1.15625 C 12.410156 -1.570312 12.96875 -2.503906 13.4375 -3.953125 L 16.84375 -14.296875 Z M 20.921875 -12.953125 "/></g></g></g><g fill="#ffffff" fill-opacity="1"><g transform="translate(231.665476, 85.729182)"><g><path d="M 9.78125 -16.140625 L 15.78125 -13.078125 C 17.394531 -12.253906 18.488281 -11.148438 19.0625 -9.765625 C 19.644531 -8.390625 19.523438 -6.898438 18.703125 -5.296875 C 18.078125 -4.066406 17.242188 -3.191406 16.203125 -2.671875 C 15.160156 -2.160156 14.023438 -2 12.796875 -2.1875 L 15.03125 7.671875 L 10.15625 5.1875 L 8.421875 -4.046875 L 5.03125 2.578125 L 1.21875 0.625 Z M 9.796875 -6.765625 L 10.25 -6.546875 C 10.601562 -6.359375 10.90625 -6.207031 11.15625 -6.09375 C 11.414062 -5.976562 11.71875 -5.878906 12.0625 -5.796875 C 12.414062 -5.722656 12.722656 -5.710938 12.984375 -5.765625 C 13.253906 -5.816406 13.53125 -5.953125 13.8125 -6.171875 C 14.09375 -6.390625 14.335938 -6.695312 14.546875 -7.09375 C 14.753906 -7.5 14.863281 -7.878906 14.875 -8.234375 C 14.882812 -8.597656 14.832031 -8.898438 14.71875 -9.140625 C 14.613281 -9.390625 14.421875 -9.628906 14.140625 -9.859375 C 13.867188 -10.097656 13.613281 -10.285156 13.375 -10.421875 C 13.144531 -10.566406 12.851562 -10.734375 12.5 -10.921875 L 12.046875 -11.140625 Z M 9.796875 -6.765625 "/></g></g></g><g fill="#ffffff" fill-opacity="1"><g transform="translate(247.127519, 93.464695)"><g><path d="M 13.515625 10.21875 L 19.53125 0.765625 L 19.453125 0.703125 L 9.703125 7.1875 L 7.65625 5.640625 L 11.25 -5.5 L 11.15625 -5.5625 L 3.71875 2.8125 L 0.28125 0.21875 L 13 -13.78125 L 16.640625 -11.015625 L 13.421875 0.15625 L 23.296875 -5.984375 L 26.953125 -3.234375 L 16.9375 12.796875 Z M 13.515625 10.21875 "/></g></g></g><g fill="#ffffff" fill-opacity="1"><g transform="translate(264.906419, 107.209377)"><g><path d="M 21.265625 -4.671875 L 12.53125 13.65625 L 9.40625 10.265625 L 11.25 6.6875 L 6.40625 1.40625 L 2.6875 2.921875 L -0.4375 -0.46875 L 18.578125 -7.59375 Z M 13.03125 3.0625 L 15.65625 -2.1875 L 15.625 -2.21875 L 10.15625 -0.0625 Z M 13.03125 3.0625 "/></g></g></g><g fill="#ffffff" fill-opacity="1"><g transform="translate(277.619101, 121.125847)"><g><path d="M 12.890625 -1.578125 L 3.0625 4.75 L 0.75 1.15625 L 16.578125 -9.046875 L 18.890625 -5.453125 L 13.125 7.1875 L 13.140625 7.203125 L 22.96875 0.875 L 25.296875 4.5 L 9.46875 14.703125 L 7.140625 11.078125 L 12.921875 -1.53125 Z M 12.890625 -1.578125 "/></g></g></g><g fill="#ffffff" fill-opacity="1"><g transform="translate(288.216632, 137.877189)"><g><path d="M 17.84375 -6.1875 L 20 -1.1875 C 21.03125 1.21875 21.09375 3.628906 20.1875 6.046875 C 19.289062 8.460938 17.601562 10.203125 15.125 11.265625 C 12.632812 12.335938 10.203125 12.378906 7.828125 11.390625 C 5.453125 10.398438 3.742188 8.691406 2.703125 6.265625 L 0.546875 1.265625 Z M 5.75 3.671875 L 6.015625 4.296875 C 6.640625 5.734375 7.632812 6.695312 9 7.1875 C 10.375 7.6875 11.796875 7.628906 13.265625 7.015625 C 14.722656 6.378906 15.742188 5.390625 16.328125 4.046875 C 16.921875 2.710938 16.90625 1.320312 16.28125 -0.125 L 16.015625 -0.75 Z M 5.75 3.671875 "/></g></g></g><g clip-path="url(#cf0e6b7a70)"><path fill="#ffffff" d="M 309.347656 187.472656 C 309.347656 186.457031 309.8125 185.546875 310.480469 184.878906 C 311.144531 184.214844 312.058594 183.804688 313.074219 183.804688 C 314.089844 183.804688 315 184.214844 315.664062 184.882812 C 316.332031 185.546875 316.730469 186.457031 316.730469 187.472656 C 316.730469 188.488281 316.371094 189.441406 315.707031 190.109375 C 315.039062 190.777344 314.085938 191.183594 313.070312 191.183594 C 312.054688 191.183594 311.183594 190.691406 310.519531 190.027344 C 309.851562 189.359375 309.347656 188.488281 309.347656 187.472656 Z M 309.347656 187.472656 " fill-opacity="1" fill-rule="nonzero"/></g><g clip-path="url(#eea836b5bf)"><path fill="#ffffff" d="M 58.191406 187.472656 C 58.191406 186.457031 58.65625 185.546875 59.324219 184.878906 C 59.988281 184.214844 60.902344 183.804688 61.917969 183.804688 C 62.933594 183.804688 63.84375 184.214844 64.507812 184.882812 C 65.171875 185.546875 65.574219 186.457031 65.574219 187.472656 C 65.574219 188.488281 65.214844 189.441406 64.550781 190.109375 C 63.882812 190.777344 62.929688 191.183594 61.914062 191.183594 C 60.898438 191.183594 60.027344 190.691406 59.359375 190.027344 C 58.695312 189.359375 58.191406 188.488281 58.191406 187.472656 Z M 58.191406 187.472656 " fill-opacity="1" fill-rule="nonzero"/></g></svg>