<?xml version="1.0" encoding="UTF-8" standalone="no"?>
<!-- Created with Inkscape (http://www.inkscape.org/) -->

<svg
   version="1.1"
   id="svg2"
   width="1122.52"
   height="793.70135"
   viewBox="0 0 1122.52 793.70135"
   xmlns="http://www.w3.org/2000/svg"
   xmlns:svg="http://www.w3.org/2000/svg">
  <defs
     id="defs6">
    <clipPath
       clipPathUnits="userSpaceOnUse"
       id="clipPath24">
      <path
         d="M 0,595.276 H 841.89 V 0 H 0 Z"
         id="path22" />
    </clipPath>
  </defs>
  <g
     id="g8"
     transform="matrix(1.3333333,0,0,-1.3333333,0,793.70133)">
    <g
       id="g10"
       transform="translate(99.9144,156.2697)">
      <path
         d="M 0,0 H 639.001 Z"
         style="fill:#bfb290;fill-opacity:1;fill-rule:nonzero;stroke:none"
         id="path12" />
    </g>
    <g
       id="g14"
       transform="translate(99.9147,156.2698)">
      <path
         d="M 0,0 H 639.001"
         style="fill:none;stroke:#bfb290;stroke-width:0.75;stroke-linecap:butt;stroke-linejoin:miter;stroke-miterlimit:10;stroke-dasharray:none;stroke-opacity:1"
         id="path16" />
    </g>
    <g
       id="g18">
      <g
         id="g20"
         clip-path="url(#clipPath24)">
        <g
           id="g26"
           transform="translate(356.6071,104.385)">
          <path
             d="m 0,0 c 4.498,0 7.122,1.842 7.122,4.998 v 0.061 c 0,3.312 -2.999,5.062 -6.59,5.062 h -9.31 V 0 Z m 0,10.744 c 3.248,0 5.966,1.562 5.966,4.907 v 0.061 c 0,2.969 -2.405,4.904 -6.498,4.904 H -8.778 V 10.744 Z M -9.465,21.242 H -0.5 c 2.53,0 4.529,-0.656 5.748,-1.875 0.906,-0.905 1.406,-2.124 1.406,-3.624 V 15.682 C 6.654,12.995 4.936,11.088 2.437,10.526 5.436,10.088 7.81,8.028 7.81,5.09 V 5.029 C 7.81,1.437 4.936,-0.626 0,-0.626 h -9.465 z"
             style="fill:#967e72;fill-opacity:1;fill-rule:nonzero;stroke:none"
             id="path28" />
        </g>
        <g
           id="g30"
           transform="translate(378.3922,113.9109)">
          <path
             d="M 0,0 C 5.061,0 7.497,2.406 7.497,5.499 V 5.56 c 0,3.47 -2.686,5.53 -7.216,5.53 H -7.903 V 0 Z m -8.591,11.716 h 8.934 c 2.844,0 4.936,-0.72 6.279,-2.063 1,-1 1.563,-2.373 1.563,-4.06 V 5.53 c 0,-3.686 -2.936,-5.873 -7.154,-6.123 L 8.31,-10.152 H 7.467 L 0.219,-0.623 H 0.125 -7.903 v -9.529 h -0.688 z"
             style="fill:#967e72;fill-opacity:1;fill-rule:nonzero;stroke:none"
             id="path32" />
        </g>
        <g
           id="g34"
           transform="translate(392.0872,113.4429)">
          <path
             d="M 0,0 V 12.184 H 0.688 V 0 c 0,-6.278 3.342,-9.401 8.184,-9.401 4.904,0 8.122,3.123 8.122,9.37 v 12.215 h 0.688 V 0 c 0,-6.685 -3.561,-10.027 -8.842,-10.027 C 3.625,-10.027 0,-6.715 0,0"
             style="fill:#967e72;fill-opacity:1;fill-rule:nonzero;stroke:none"
             id="path36" />
        </g>
        <g
           id="g38"
           transform="translate(415.9351,125.627)">
          <path
             d="M 0,0 H 0.594 L 17.213,-20.743 V 0 h 0.656 V -21.868 H 17.276 L 0.656,-1.124 V -21.868 H 0 Z"
             style="fill:#967e72;fill-opacity:1;fill-rule:nonzero;stroke:none"
             id="path40" />
        </g>
        <g
           id="g42"
           transform="translate(439.3468,114.6308)">
          <path
             d="m 0,0 v 0.061 c 0,6.156 4.5,11.309 10.747,11.309 4.123,0 6.28,-1.531 8.31,-3.467 L 18.589,7.435 c -1.75,1.687 -3.968,3.312 -7.873,3.312 C 4.904,10.747 0.687,5.81 0.687,0.094 V 0.031 c 0,-5.78 4.281,-10.653 10.029,-10.653 3.561,0 6.217,1.686 7.965,3.561 l 0.501,-0.468 c -1.906,-2 -4.655,-3.716 -8.499,-3.716 C 4.53,-11.245 0,-6.186 0,0"
             style="fill:#967e72;fill-opacity:1;fill-rule:nonzero;stroke:none"
             id="path44" />
        </g>
        <g
           id="g46"
           transform="translate(463.0078,125.627)">
          <path
             d="m 0,0 h 0.687 v -10.528 h 15.62 V 0 h 0.687 v -21.868 h -0.687 v 10.714 H 0.687 V -21.868 H 0 Z"
             style="fill:#967e72;fill-opacity:1;fill-rule:nonzero;stroke:none"
             id="path48" />
        </g>
        <g
           id="g50"
           transform="translate(409.9502,276.6438)">
          <path
             d="m 0,0 c 4.603,-7.515 9.062,-13.403 13.744,-19.095 11.659,-14.177 25.64,-25.561 43.489,-30.715 15.292,-4.42 29.351,-0.617 40.84,10.413 8.341,8.013 6.82,21.39 -3.515,26.531 C 86.02,-8.617 76.551,-6.02 67.253,-3.62 49.154,1.049 31.279,5.98 16.341,18.007 5.246,26.938 -1.77,38.204 -2.413,52.643 c -0.695,16 8.328,33.049 23.2,38.361 2.177,0.774 4.669,0.761 7.017,0.774 27.134,0.065 86.046,-0.053 86.046,-0.053 0,-16.708 -0.092,-38.741 -0.092,-54.4 0,0 -15.856,34.335 -56.171,43.843 C 45.364,83.699 34.282,84.945 34.282,84.945 26.649,85.902 20.892,84.079 17.299,77.247 13.6,70.204 14.046,63.122 18.584,56.551 23.922,48.8 32.092,44.866 40.499,41.863 56.184,36.263 72.145,31.449 87.87,25.954 c 6.282,-2.19 12.498,-4.878 18.308,-8.131 18.898,-10.557 23.567,-37.535 10.177,-56.289 -7.934,-11.095 -19.2,-17.246 -31.974,-19.672 -15.803,-3.002 -30.875,-1.212 -60.675,2.901 -2.601,0.359 -6.406,0.915 -11.403,0.307 0,0 -2.46,-0.299 -12.191,-2.725 -0.087,11.651 -0.136,23.364 -0.145,35.138 C -0.038,-14.986 -0.027,-7.48 0,0"
             style="fill:#6a5e50;fill-opacity:1;fill-rule:nonzero;stroke:none"
             id="path52" />
        </g>
        <g
           id="g54"
           transform="translate(620.3943,353.6212)">
          <path
             d="M 0,0 C 8.688,8.755 17.888,12.195 27.345,12.195 H 43.318 C 49.902,11.346 52.991,6.637 53.221,0.013 53.571,-10.266 50.495,-19.683 45.49,-28.438 35.507,-45.909 22.152,-63.15 4.546,-66.913 -13.072,-70.677 -21.437,-67.102 -21.679,-61.962 -22.475,-44.91 -17.241,-17.403 0,0 m 59.305,-95.972 c -7.865,-13.154 -17.632,-25.403 -33.12,-29.949 -11.359,-3.319 -21.989,-2.307 -30.799,6.732 -11.278,11.574 -16,29.557 -16.769,44.195 4.614,-4.398 18.199,-7.42 26.901,-7.879 19.831,-1.052 37.733,4.412 49.564,21.491 14.273,20.6 16.297,43.615 9.268,67.21 -3.494,11.71 -9.619,15.123 -21.625,15.123 L 11.44,20.91 c -20.951,0 -35.426,-7.676 -47.298,-22.92 -18.793,-24.135 -24.472,-51.48 -17.052,-81.052 5.248,-20.937 17.538,-36.843 37.517,-46.151 6.695,-3.119 26.157,-12.497 49.093,-5.72 14.732,4.353 24.334,13.409 29.252,18.963 -0.009,3.436 -0.019,7.027 -0.03,10.463 -0.019,5.636 -0.042,11.265 -0.069,16.887 -0.918,-2.266 -2.779,-6.071 -3.548,-7.352"
             style="fill:#6a5e50;fill-opacity:1;fill-rule:nonzero;stroke:none"
             id="path56" />
        </g>
        <g
           id="g58"
           transform="translate(717.6404,312.0852)">
          <path
             d="m 0,0 c 8.234,-54.115 -22.726,-101.67 -63.798,-111.727 -30.485,-7.465 -66.54,5.729 -85.403,30.344 -5.637,7.357 -14.897,16.222 -15.13,38.083 -0.395,37.126 -0.791,74.253 -1.186,111.378 h -0.167 v 15.747 27.423 7.732 60.825 h -8.688 c 0.565,-88.976 1.13,-177.951 1.695,-266.927 6.796,-7.168 29.974,-29.817 67.625,-34.919 5.907,-0.801 33.935,-4.118 62.349,9.376 C -3.252,-93.931 21.932,-49.922 24.335,0.313 16.223,0.209 8.112,0.105 0,0"
             style="fill:#95856a;fill-opacity:1;fill-rule:nonzero;stroke:none"
             id="path60" />
        </g>
        <g
           id="g62"
           transform="translate(656.5967,426.3208)">
          <path
             d="m 0,0 c -6.288,-8.177 -16.558,-19.647 -31.807,-29.278 -15.259,-9.635 -31.214,-14.679 -52.213,-15.505 v -4.256 c 17.714,0.448 34.091,2.681 52.976,8.937 12.759,4.227 33.758,14.087 54.87,40.421 C 15.884,0.213 7.942,0.107 0,0"
             style="fill:#6a5e50;fill-opacity:1;fill-rule:nonzero;stroke:none"
             id="path64" />
        </g>
        <path
           d="m 593.652,414.109 h -45.07 v 12.531 h 45.07 z"
           style="fill:#95856a;fill-opacity:1;fill-rule:nonzero;stroke:none"
           id="path66" />
        <g
           id="g68"
           transform="translate(370.1111,416.0662)">
          <path
             d="m 0,0 c -105.376,26.292 -153.458,40.353 -223.105,29.823 -15.627,-2.363 -31.274,-5.712 -46.492,-9.953 -0.109,-15.717 -0.219,-31.433 -0.328,-47.149 6.117,3.979 12.061,7.473 17.803,10.58 8.264,4.471 16.097,8.117 23.334,11.08 9.65,3.95 18.259,6.718 25.468,8.715 5.765,1.597 11.462,2.916 17.144,4 0,0.001 0,0.003 -0.001,0.004 0.059,0.012 0.121,0.021 0.18,0.032 0.926,0.176 1.853,0.328 2.779,0.491 0.825,0.145 1.633,0.3 2.471,0.437 0.052,0.009 0.102,0.014 0.154,0.022 0.199,0.033 0.399,0.073 0.598,0.105 v -0.02 c 3.531,0.566 6.966,1.013 10.338,1.388 0,0.011 0,0.022 0,0.033 2.258,0.249 4.522,0.467 6.794,0.65 h 0.001 c 2.254,0.181 4.518,0.329 6.795,0.439 18.067,0.879 36.905,-0.327 58.108,-3.066 26.796,-3.461 57.372,-9.373 95.001,-16.653 11.6,-2.244 23.891,-4.798 76.952,-15.248 42.319,-8.334 59.616,-11.654 76.906,-12.962 v 5.083 C 116.034,-28.177 69.025,-17.222 0,0"
             style="fill:#6a5e50;fill-opacity:1;fill-rule:nonzero;stroke:none"
             id="path70" />
        </g>
        <g
           id="g72"
           transform="translate(223.2437,216.3694)">
          <path
             d="m 0,0 c -8.63,27.465 -11.279,56.166 -12.315,84.825 -1.208,33.671 -1.195,71.152 -1.566,105.848 -0.045,4.191 -0.092,8.362 -0.151,12.459 -1.423,0.06 -3.136,0.026 -5.053,-0.237 -2.077,-0.284 -3.857,-0.763 -5.285,-1.249 -0.002,-3.602 -0.005,-7.268 -0.007,-10.973 -0.002,-2.484 -0.004,-4.974 -0.004,-7.516 C -24.459,129.224 -23.082,75.206 -32.787,21.863 -35.24,8.383 -44.04,-17.903 -51.725,-27.269 H 11.698 C 7.03,-18.619 2.898,-9.225 0,0"
             style="fill:#6a5e50;fill-opacity:1;fill-rule:nonzero;stroke:none"
             id="path74" />
        </g>
        <g
           id="g76"
           transform="translate(295.258,219.4434)">
          <path
             d="M 0,0 2.704,1.165 C 3.887,1.676 5.049,2.226 6.186,2.831 L 6.697,3.103 7.239,2.907 C 8.117,2.591 9.018,2.318 9.93,2.071 c 5.015,3.064 9.406,6.856 13.001,11.4 1.077,1.364 2.16,2.884 3.276,4.547 -0.32,0.113 -0.643,0.215 -0.959,0.347 l -1.445,0.603 0.855,1.31 c 0.555,0.844 1.071,1.714 1.587,2.584 l 0.56,0.941 1.022,-0.391 c 0.465,-0.177 0.942,-0.272 1.415,-0.393 5.732,10.181 9.307,22.168 10.861,36.624 0.635,5.92 0.817,12.165 0.566,18.571 -0.207,-0.111 -0.421,-0.207 -0.627,-0.32 l -0.799,-0.43 c -0.526,-0.28 -1.058,-0.562 -1.574,-0.867 L 37.203,76.299 C 36.487,75.865 35.832,75.381 35.151,74.918 35.219,69.955 35.056,65.022 34.543,60.244 32.996,45.842 29.387,34.064 23.513,24.231 l -0.241,-0.41 c -0.435,-0.73 -0.87,-1.46 -1.336,-2.167 C 20.802,19.937 19.693,18.396 18.541,16.941 14.272,11.541 8.913,7.316 2.607,4.38 1.508,3.869 0.397,3.388 -0.745,2.966 -5.553,1.198 -10.579,0.272 -15.687,0.216 l 0.016,-1.302 -0.496,1.3 c -13.288,0 -25.732,5.842 -34.139,16.027 -7.62,9.216 -12.489,20.123 -14.883,33.345 -0.986,5.504 -1.549,11.151 -2.096,16.617 l -0.081,0.812 c -0.221,2.198 -0.443,4.395 -0.689,6.392 0.697,19.584 4.047,33.973 10.864,46.661 1.933,3.596 4.085,6.771 6.418,9.622 -0.997,-1.405 -1.906,-2.916 -2.697,-4.553 -2.233,-4.629 -3.856,-10.116 -4.958,-16.768 -2.279,-13.621 -0.2,-27.148 2.132,-38.584 3.243,-15.931 8.356,-29.132 15.628,-40.36 6.499,-10.045 13.38,-16.557 21.657,-20.492 3.876,-1.836 7.87,-2.966 11.863,-3.35 0.985,-0.099 1.969,-0.18 2.938,-0.18 0.56,0 1.114,0.035 1.76,0.076 2.783,0.17 5.418,0.727 7.837,1.656 6.84,2.628 12.261,8.14 15.672,15.938 l 0.295,0.636 c 0.356,0.845 0.684,1.705 0.994,2.572 2.391,6.641 3.577,14.15 3.732,23.636 l -0.01,0.3 c -0.143,1.536 -0.275,3.077 -0.405,4.665 -0.234,2.775 -0.468,5.555 -0.781,8.32 -0.053,0.478 -0.117,0.944 -0.183,1.412 l -0.038,0.296 c -0.076,-0.104 -0.167,-0.199 -0.241,-0.304 -0.99,-1.396 -1.791,-2.673 -2.453,-3.902 -0.807,-1.507 -1.458,-3.062 -2.033,-4.636 0.051,-0.568 0.11,-1.133 0.159,-1.7 0.127,-1.531 0.254,-3.063 0.394,-4.444 -0.098,-5.795 -0.594,-10.707 -1.535,-15.118 0.108,-0.44 0.185,-0.878 0.309,-1.319 0.252,-0.895 0.595,-1.793 1.076,-2.823 l 0.211,-0.453 -0.145,-0.478 c -0.404,-1.333 -0.865,-2.63 -1.366,-3.9 l -0.928,-2.353 -1.376,2.124 c -0.142,0.219 -0.241,0.467 -0.376,0.691 L 16.193,25.866 C 13.41,19.179 8.982,14.509 3.38,12.357 0.802,11.364 -2.045,10.942 -5.074,11.05 c 0.113,-0.122 0.205,-0.261 0.32,-0.382 l 2.287,-2.401 -3.31,0.203 c -1.467,0.089 -3.029,0.318 -4.637,0.679 l -0.452,0.105 -0.288,0.364 c -0.76,0.969 -1.466,1.978 -2.127,3.016 -1.136,0.389 -2.25,0.839 -3.332,1.351 -7.295,3.467 -13.445,9.338 -19.357,18.477 -6.888,10.63 -11.744,23.203 -14.842,38.44 -2.236,10.927 -4.232,23.816 -2.098,36.547 1.012,6.12 2.475,11.108 4.474,15.256 2.75,5.683 7.031,9.661 12.38,11.5 5.733,1.964 12.601,1.275 19.016,-1.89 3.608,-1.784 6.86,-4.049 9.943,-6.887 v 3.675 l 2.195,-2.063 c 1.025,-0.964 2.056,-2.022 3.065,-3.144 l 0.334,-0.371 v -4.169 c 0.462,-0.586 0.905,-1.203 1.35,-1.815 0.074,0.059 0.148,0.118 0.222,0.176 l 1.895,1.511 0.796,-1.132 c 0.516,-0.732 1.02,-1.518 1.523,-2.304 l 0.794,-1.236 -1.669,-1.328 c -0.15,-0.12 -0.302,-0.238 -0.451,-0.358 1.109,-1.783 2.11,-3.478 3.021,-5.185 2.976,-5.609 5.517,-11.684 7.595,-18.053 0.399,0.169 0.777,0.34 1.19,0.51 0.898,0.366 1.839,0.732 2.826,1.101 0.375,0.14 0.806,0.286 1.197,0.428 -2.159,6.569 -4.791,12.843 -7.871,18.642 -1.379,2.584 -2.745,4.912 -4.172,7.112 -0.539,0.832 -1.122,1.674 -1.719,2.518 -2.218,3.134 -4.503,5.85 -6.988,8.305 -0.966,0.951 -1.994,1.877 -3.062,2.78 -3.065,2.582 -6.186,4.642 -9.539,6.301 -7.839,3.869 -16.114,4.642 -23.307,2.162 -2.493,-0.857 -4.792,-2.074 -6.879,-3.612 4.515,3.832 9.632,6.663 15.438,8.498 7.394,2.335 15.402,2.618 23.152,0.817 0.977,-0.227 1.946,-0.481 2.905,-0.773 8.308,-2.529 15.562,-7.301 20.98,-13.8 l 0.534,-0.694 c 0.618,-0.763 1.216,-1.542 1.801,-2.335 6.337,-8.6 10.577,-18.886 12.976,-31.376 0.418,0.12 0.804,0.238 1.23,0.359 0.957,0.269 1.926,0.539 2.898,0.806 0.419,0.115 0.847,0.228 1.269,0.343 -2.445,12.459 -6.669,22.879 -12.872,31.753 -0.386,-0.221 -0.775,-0.406 -1.159,-0.636 l -1.017,-0.611 -0.702,0.959 c -0.585,0.799 -1.198,1.58 -1.819,2.353 l -0.926,1.157 1.267,0.771 c 0.32,0.195 0.645,0.349 0.966,0.537 -0.051,0.065 -0.1,0.133 -0.152,0.196 -3.968,4.76 -8.91,8.742 -14.477,11.726 l -6.066,0.01 c -2.531,1.007 -5.069,1.793 -7.547,2.335 l -1.025,0.224 v 2.585 c -8.019,1.495 -16.247,1.041 -23.897,-1.374 -13.466,-4.253 -23.646,-13.085 -31.124,-26.998 -7.255,-13.507 -10.811,-28.688 -11.533,-49.319 l 0.018,-0.321 c 0.274,-2.35 0.511,-4.7 0.747,-7.056 l 0.039,-0.371 c 0.557,-5.581 1.134,-11.35 2.154,-17.048 2.531,-13.995 7.939,-26.08 16.073,-35.916 9.475,-11.477 23.491,-18.06 38.453,-18.06 l 0.539,0.005 c 6.426,0.067 12.751,1.413 18.817,3.958 -0.166,0.072 -0.34,0.126 -0.505,0.201 z"
             style="fill:#95856a;fill-opacity:1;fill-rule:nonzero;stroke:none"
             id="path78" />
        </g>
        <g
           id="g80"
           transform="translate(285.3429,231.1238)">
          <path
             d="m 0,0 c -1.138,0.255 -2.262,0.575 -3.366,0.954 0.661,-1.039 1.367,-2.047 2.127,-3.017 l 0.288,-0.364 0.452,-0.104 c 1.608,-0.361 3.17,-0.59 4.638,-0.679 L 7.448,-3.414 5.161,-1.012 C 5.046,-0.892 4.954,-0.753 4.841,-0.631 4.634,-0.623 4.434,-0.636 4.225,-0.623 2.897,-0.542 1.475,-0.333 0,0"
             style="fill:#95856a;fill-opacity:1;fill-rule:nonzero;stroke:none"
             id="path82" />
        </g>
        <g
           id="g84"
           transform="translate(318.0822,352.6032)">
          <path
             d="M 0,0 -0.318,0.417 C -0.428,0.562 -0.541,0.705 -0.654,0.847 -0.975,0.659 -1.3,0.505 -1.62,0.31 l -1.267,-0.77 0.926,-1.158 c 0.62,-0.773 1.234,-1.554 1.819,-2.353 L 0.56,-4.93 1.577,-4.319 c 0.384,0.23 0.773,0.415 1.159,0.636 C 2.45,-3.274 2.184,-2.849 1.89,-2.447 1.282,-1.615 0.646,-0.806 0,0"
             style="fill:#95856a;fill-opacity:1;fill-rule:nonzero;stroke:none"
             id="path86" />
        </g>
        <g
           id="g88"
           transform="translate(302.599,219.9623)">
          <path
             d="M 0,0 C 0.896,0.478 1.732,1.028 2.589,1.552 1.677,1.799 0.776,2.072 -0.102,2.388 L -0.644,2.584 -1.155,2.312 C -2.292,1.707 -3.454,1.157 -4.637,0.646 l -2.704,-1.165 2.684,-1.216 c 0.165,-0.075 0.339,-0.129 0.505,-0.201 0.158,0.066 0.319,0.111 0.476,0.178 C -2.427,-1.221 -1.198,-0.638 0,0"
             style="fill:#95856a;fill-opacity:1;fill-rule:nonzero;stroke:none"
             id="path90" />
        </g>
        <g
           id="g92"
           transform="translate(289.1863,367.7176)">
          <path
             d="m 0,0 c 2.478,-0.542 5.016,-1.328 7.547,-2.335 l 6.066,-0.01 C 11.94,-1.448 10.216,-0.632 8.437,0.076 5.769,1.14 3.093,1.966 0.483,2.531 -0.018,2.64 -0.522,2.716 -1.025,2.809 V 0.224 Z"
             style="fill:#95856a;fill-opacity:1;fill-rule:nonzero;stroke:none"
             id="path94" />
        </g>
        <g
           id="g96"
           transform="translate(297.2904,333.8032)">
          <path
             d="m 0,0 0.148,-0.229 c 0.281,-0.438 0.513,-0.838 0.776,-1.261 0.15,0.12 0.302,0.238 0.452,0.358 L 3.045,0.196 2.251,1.432 C 1.747,2.218 1.244,3.004 0.727,3.737 L -0.069,4.869 -1.964,3.358 C -2.037,3.299 -2.112,3.24 -2.185,3.181 -1.951,2.86 -1.706,2.558 -1.475,2.228 -0.977,1.519 -0.488,0.758 0,0"
             style="fill:#95856a;fill-opacity:1;fill-rule:nonzero;stroke:none"
             id="path98" />
        </g>
        <g
           id="g100"
           transform="translate(291.412,341.5867)">
          <path
             d="M 0,0 C 0.813,-0.907 1.589,-1.833 2.343,-2.788 V 1.381 L 2.009,1.753 C 1,2.874 -0.031,3.932 -1.056,4.897 L -3.251,6.959 V 3.285 C -3.138,3.181 -3.022,3.091 -2.91,2.986 -1.938,2.073 -0.959,1.068 0,0"
             style="fill:#95856a;fill-opacity:1;fill-rule:nonzero;stroke:none"
             id="path102" />
        </g>
        <g
           id="g104"
           transform="translate(311.8044,246.2178)">
          <path
             d="m 0,0 -0.187,-0.48 c 0.134,-0.224 0.234,-0.472 0.375,-0.69 l 1.376,-2.124 0.929,2.353 C 2.994,0.328 3.454,1.625 3.859,2.958 L 4.004,3.436 3.793,3.889 C 3.312,4.919 2.968,5.817 2.717,6.713 2.593,7.153 2.516,7.592 2.407,8.032 2.088,6.537 1.719,5.098 1.295,3.704 0.911,2.437 0.476,1.208 0,0"
             style="fill:#95856a;fill-opacity:1;fill-rule:nonzero;stroke:none"
             id="path106" />
        </g>
        <g
           id="g108"
           transform="translate(309.7193,303.3916)">
          <path
             d="m 0,0 c 0.659,0.303 1.368,0.605 2.111,0.911 0.865,0.356 1.796,0.717 2.76,1.078 4.228,1.585 9.638,3.314 16.076,5.138 l 2.895,0.809 c 24.149,6.647 53.23,12.337 53.515,12.393 l 2.389,0.47 -0.138,2.414 C 79.596,23.506 77.477,52.605 47.884,58.168 33.996,60.372 20.511,57.599 7.646,50.049 7.759,49.906 7.872,49.764 7.982,49.619 L 8.3,49.202 c 0.646,-0.807 1.282,-1.615 1.89,-2.447 0.294,-0.403 0.56,-0.827 0.846,-1.236 11.6,6.654 23.676,9.072 35.889,7.14 C 67.737,48.746 72.613,32.03 73.733,25.312 65.657,23.688 43.531,19.101 23.908,13.766 c -0.423,-0.115 -0.85,-0.228 -1.27,-0.343 -0.971,-0.267 -1.94,-0.537 -2.897,-0.807 -0.426,-0.12 -0.812,-0.238 -1.23,-0.358 C 12.988,10.669 8.213,9.146 4.262,7.713 3.871,7.571 3.44,7.425 3.065,7.285 2.078,6.916 1.137,6.55 0.239,6.184 -0.174,6.013 -0.552,5.843 -0.951,5.673 c -0.473,-0.2 -0.964,-0.401 -1.41,-0.604 -11.71,-5.517 -20.003,-12.603 -25.352,-21.666 -7.649,-12.945 -9.274,-27.744 -4.828,-43.98 1.062,-3.878 2.654,-7.477 4.736,-10.747 1.104,-0.378 2.228,-0.699 3.366,-0.954 1.475,-0.333 2.897,-0.541 4.225,-0.623 0.209,-0.012 0.409,0 0.616,-0.007 -3.528,3.819 -6.079,8.45 -7.548,13.806 -4.092,14.929 -2.701,27.904 4.248,39.663 C -18.068,-11.261 -10.793,-5.085 0,0"
             style="fill:#6a5e50;fill-opacity:1;fill-rule:nonzero;stroke:none"
             id="path110" />
        </g>
        <g
           id="g112"
           transform="translate(399.3955,325.4069)">
          <path
             d="m 0,0 v 0.003 c -0.112,9.833 -3.327,19.224 -9.297,27.156 -9.104,12.148 -22.295,18.309 -39.208,18.309 h -62.792 V 45.11 c 0.503,-0.094 1.007,-0.169 1.508,-0.278 2.61,-0.565 5.286,-1.392 7.954,-2.455 1.779,-0.708 3.503,-1.524 5.176,-2.421 l 48.154,-0.082 c 15.267,0 26.63,-5.258 34.736,-16.073 5.25,-6.975 8.076,-15.226 8.176,-23.857 0.223,-25.261 0.206,-52.325 0.188,-76.205 -0.008,-8.928 -0.013,-17.813 -0.008,-26.594 l -28.003,0.021 c 8.898,18.273 22.038,60.77 23.084,72.743 l 0.101,1.162 -5.199,1.04 -0.353,-1.111 c -0.1,-0.313 -10.073,-31.422 -27.551,-56.38 -11.248,-14.204 -25.873,-20.85 -43.498,-19.741 -2.566,0.16 -5.055,0.574 -7.438,1.219 -0.858,-0.524 -1.693,-1.074 -2.589,-1.552 -1.199,-0.639 -2.427,-1.221 -3.676,-1.758 -0.157,-0.068 -0.319,-0.113 -0.476,-0.179 4.308,-1.882 8.951,-3.01 13.828,-3.311 1.396,-0.089 2.772,-0.13 4.138,-0.13 17.714,0 32.566,7.418 44.188,22.11 5.207,7.43 9.748,15.366 13.515,22.725 -4.999,-15.466 -10.915,-31.079 -15.122,-38.211 l -2.491,-4.217 h 4.897 c 11.459,0 35.438,-0.026 35.438,-0.026 l 2.801,-0.005 v 2.801 c -0.008,8.284 -0.003,16.666 0.002,25.098 l 0.003,4.296 C 0.203,-51.074 0.221,-25.029 0,0"
             style="fill:#6a5e50;fill-opacity:1;fill-rule:nonzero;stroke:none"
             id="path114" />
        </g>
        <g
           id="g116"
           transform="translate(296.6093,331.0817)">
          <path
             d="M 0,0 C 0.52,0.403 1.031,0.813 1.542,1.222 1.279,1.645 1.047,2.044 0.766,2.483 L 0.618,2.712 C 0.13,3.47 -0.359,4.23 -0.857,4.94 -1.088,5.27 -1.333,5.572 -1.567,5.893 -2.015,5.534 -2.463,5.176 -2.918,4.818 v 2.89 c -0.753,0.954 -1.529,1.88 -2.342,2.787 -0.959,1.068 -1.939,2.073 -2.91,2.986 -0.112,0.105 -0.228,0.195 -0.341,0.299 V -7.188 l 6.413,5.428 C -1.295,-1.068 -0.651,-0.516 0,0"
             style="fill:#6a5e50;fill-opacity:1;fill-rule:nonzero;stroke:none"
             id="path118" />
        </g>
        <g
           id="g120"
           transform="translate(375.9253,297.1114)">
          <path
             d="m 0,0 c -6.82,-16.241 -14.654,-33.141 -28.682,-45.633 -3.772,-3.35 -8.801,-6.28 -14.537,-8.473 -2.847,-1.086 -5.617,-1.232 -8.269,-0.553 -0.28,-0.498 -0.539,-1.013 -0.83,-1.502 L -52.46,-56.4 c -0.489,-0.819 -0.979,-1.641 -1.501,-2.437 -0.191,-0.292 -0.373,-0.542 -0.562,-0.823 1.935,-0.687 3.939,-1.057 5.983,-1.057 2.431,0 4.891,0.466 7.315,1.384 6.357,2.429 11.981,5.721 16.264,9.521 14.901,13.273 23.048,30.816 30.114,47.65 1.898,4.533 3.75,9.834 5.591,15.102 0.771,2.207 1.519,4.349 2.236,6.341 l 1.801,4.968 -5.123,-1.31 c 0,0 -9.465,-2.422 -13.435,-3.506 C -15.966,16.096 -29.781,12.316 -42.13,5.802 -43.112,5.283 -44.092,4.754 -45.066,4.194 L -45.9,3.737 c -5.085,-3.004 -9.468,-6.713 -13.029,-11.017 -0.974,-1.175 -1.864,-2.36 -2.642,-3.523 -6.861,-10.233 -8.735,-22.628 -5.281,-34.906 0.575,-2.039 1.434,-3.926 2.481,-5.674 l 0.187,0.48 c 0.476,1.208 0.911,2.436 1.295,3.703 0.424,1.395 0.794,2.833 1.112,4.329 -1.807,7.328 -1.463,14.566 0.983,21.261 0.575,1.574 1.226,3.129 2.033,4.636 0.662,1.229 1.463,2.506 2.452,3.902 0.075,0.105 0.166,0.2 0.242,0.305 2.775,3.831 6.313,7.171 10.487,10.007 0.682,0.463 1.337,0.947 2.053,1.381 l 0.466,0.298 c 0.516,0.305 1.048,0.588 1.574,0.867 l 0.799,0.43 c 0.206,0.113 0.42,0.209 0.627,0.321 11.977,6.427 25.162,10.054 37.929,13.547 1.908,0.522 5.253,1.397 8.097,2.129 L 5.385,14.56 C 3.63,9.539 1.814,4.35 0,0"
             style="fill:#6a5e50;fill-opacity:1;fill-rule:nonzero;stroke:none"
             id="path122" />
        </g>
        <g
           id="g124"
           transform="translate(323.5281,240.721)">
          <path
             d="m 0,0 0.142,0.239 c 0.291,0.489 0.55,1.005 0.83,1.502 -0.473,0.122 -0.95,0.216 -1.415,0.393 L -1.465,2.526 -2.025,1.585 C -2.541,0.715 -3.057,-0.155 -3.612,-1 l -0.855,-1.31 1.445,-0.602 c 0.316,-0.133 0.639,-0.234 0.959,-0.348 0.189,0.282 0.371,0.531 0.562,0.823 C -0.979,-1.641 -0.488,-0.819 0,0"
             style="fill:#95856a;fill-opacity:1;fill-rule:nonzero;stroke:none"
             id="path126" />
        </g>
      </g>
    </g>
  </g>
</svg>
